# xmcd
#
# Track frame offsets:
#	150
#	13836
#	27122
#	46088
#	58347
#	72389
#	86578
#	99852
#	111813
#	122571
#	134916
#	151258
#	166152
#	177218
#	194628
#	206290
#	222526
#	237928
#	249259
#	264806
#
# Disc length: 3735 seconds
#
# Revision: 0
# Processed by: cddbd v1.5.2PL0 Copyright (c) Steve Scherf et al.
# Submitted via: EasyCDDAExtractor 8.2.4.1
#
DISCID=140e9514
DTITLE=Dolly Parton - The Very Best of Dolly Parton
DYEAR=2007
DGENRE=Country
TTITLE0=9 to 5
TTITLE1=I Will Always Love You 
TTITLE2=Islands in the Stream - Dolly Parton, Kenny Rogers 
TTITLE3=Jolene 
TTITLE4=Coat of Many Colors 
TTITLE5=My Tennessee Mountain Home 
TTITLE6=Here You Come Again 
TTITLE7=Baby I'm Burnin' 
TTITLE8=Love Is Like a Butterfly 
TTITLE9=Bargain Store 
TTITLE10=Potential New Boyfriend 
TTITLE11=Everything's Beautiful (In It's Own Way) - Willie Nelson, Dolly Parto
TTITLE11=n 
TTITLE12=Silver Threads and Golden Needles - Loretta Lynn, Dolly Parton, Tammy
TTITLE12=Wynette 
TTITLE13=To Know Him Is to Love Him - Emmylou Harris, Dolly Parton, Linda Rons
TTITLE13=tadt 
TTITLE14=Why'd You Come in Here Lookin' Like That 
TTITLE15=Romeo - Mary Chapin Carpenter, Billy Ray Cyrus, Kathy Mattea, Dolly P
TTITLE15=arton, Pam Tillis, Tanya Tucker
TTITLE16=Tennessee Homesick Blues 
TTITLE17=Dumb Blonde 
TTITLE18=Applejack 
TTITLE19=Old Flames Can't Hold a Candle to You 
EXTD=
EXTT0=
EXTT1=
EXTT2=
EXTT3=
EXTT4=
EXTT5=
EXTT6=
EXTT7=
EXTT8=
EXTT9=
EXTT10=
EXTT11=
EXTT12=
EXTT13=
EXTT14=
EXTT15=
EXTT16=
EXTT17=
EXTT18=
EXTT19=
PLAYORDER=
